# xmcd CD database file
#
# Track frame offsets:
#	150
#	12513
#	25620
#	40598
#	52882
#	68623
#	83532
#	97093
#	111535
#	123654
#	137140
#	154155
#
# Disc length: 2240 seconds
#
# Revision: 0
# Processed by: cddbd v1.5.1PL0 Copyright (c) Steve Scherf et al.
# Submitted via: CDex 1.51
#
DISCID=9708be0c
DTITLE=Buddy Rich - Jazz History 9
DYEAR=2005
DGENRE=Jazz
TTITLE0=A Little Handicap
TTITLE1=You Got Me Cryin'Again
TTITLE2=Dateless Brown
TTITLE3=It Couldn't Be True
TTITLE4=Baby,Baby,All The Time
TTITLE5=Route 66
TTITLE6=Ready To Go Steady
TTITLE7=Rich-Ual Dance
TTITLE8=It's About Time
TTITLE9=Oop-Bop-Sha-Bam
TTITLE10=What This Thing Called Love
TTITLE11=Just You ,Just Me
EXTD=YEAR: 2005
EXTT0=
EXTT1=
EXTT2=
EXTT3=
EXTT4=
EXTT5=
EXTT6=
EXTT7=
EXTT8=
EXTT9=
EXTT10=
EXTT11=
PLAYORDER=
